<?xml version="1.0" encoding="UTF-8"?>
<svg xmlns="http://www.w3.org/2000/svg" width="148.0000mm" height="210.0000mm" viewBox="0 0 148.0000 210.0000">
<rect x="0" y="0" width="148.0000" height="210.0000" fill="white"/>
<g style="isolation:isolate">
<g style="mix-blend-mode:multiply">
<rect x="61.2000" y="98.1000" width="6.4000" height="12.8000" fill="#00FFFF"/>
<rect x="106.0000" y="98.1000" width="6.4000" height="12.8000" fill="#00FFFF"/>
<rect x="112.4000" y="98.1000" width="6.4000" height="12.8000" fill="#00FFFF"/>
<rect x="31.7600" y="98.1000" width="2.5600" height="12.8000" fill="#00FFFF"/>
<rect x="39.4400" y="98.1000" width="2.5600" height="12.8000" fill="#00FFFF"/>
</g>
<g style="mix-blend-mode:multiply">
<rect x="80.4000" y="98.1000" width="6.4000" height="12.8000" fill="#FF00FF"/>
<rect x="99.6000" y="98.1000" width="6.4000" height="12.8000" fill="#FF00FF"/>
<rect x="34.3200" y="98.1000" width="2.5600" height="12.8000" fill="#FF00FF"/>
<rect x="39.4400" y="98.1000" width="2.5600" height="12.8000" fill="#FF00FF"/>
</g>
<g style="mix-blend-mode:multiply">
<rect x="48.4000" y="98.1000" width="6.4000" height="12.8000" fill="#FFFF00"/>
<rect x="54.8000" y="98.1000" width="6.4000" height="12.8000" fill="#FFFF00"/>
<rect x="61.2000" y="98.1000" width="6.4000" height="12.8000" fill="#FFFF00"/>
<rect x="67.6000" y="98.1000" width="6.4000" height="12.8000" fill="#FFFF00"/>
<rect x="74.0000" y="98.1000" width="6.4000" height="12.8000" fill="#FFFF00"/>
<rect x="106.0000" y="98.1000" width="6.4000" height="12.8000" fill="#FFFF00"/>
<rect x="112.4000" y="98.1000" width="6.4000" height="12.8000" fill="#FFFF00"/>
<rect x="36.8800" y="98.1000" width="2.5600" height="12.8000" fill="#FFFF00"/>
<rect x="39.4400" y="98.1000" width="2.5600" height="12.8000" fill="#FFFF00"/>
</g>
</g>
<line x1="42.0000" y1="110.9000" x2="42.0000" y2="98.1000" stroke="black" stroke-width="0.15"/>
<line x1="48.4000" y1="110.9000" x2="48.4000" y2="98.1000" stroke="black" stroke-width="0.15"/>
<line x1="54.8000" y1="110.9000" x2="54.8000" y2="98.1000" stroke="black" stroke-width="0.15"/>
<line x1="61.2000" y1="110.9000" x2="61.2000" y2="98.1000" stroke="black" stroke-width="0.15"/>
<line x1="67.6000" y1="110.9000" x2="67.6000" y2="98.1000" stroke="black" stroke-width="0.15"/>
<line x1="74.0000" y1="110.9000" x2="74.0000" y2="98.1000" stroke="black" stroke-width="0.15"/>
<line x1="80.4000" y1="110.9000" x2="80.4000" y2="98.1000" stroke="black" stroke-width="0.15"/>
<line x1="86.8000" y1="110.9000" x2="86.8000" y2="98.1000" stroke="black" stroke-width="0.15"/>
<line x1="93.2000" y1="110.9000" x2="93.2000" y2="98.1000" stroke="black" stroke-width="0.15"/>
<line x1="99.6000" y1="110.9000" x2="99.6000" y2="98.1000" stroke="black" stroke-width="0.15"/>
<line x1="106.0000" y1="110.9000" x2="106.0000" y2="98.1000" stroke="black" stroke-width="0.15"/>
<line x1="112.4000" y1="110.9000" x2="112.4000" y2="98.1000" stroke="black" stroke-width="0.15"/>
<rect x="16.4000" y="98.1000" width="3.8400" height="12.8000" fill="black"/>
<rect x="119.7600" y="98.1000" width="1.6000" height="12.8000" fill="black"/>
<rect x="122.6400" y="98.1000" width="3.5200" height="12.8000" fill="black"/>
<rect x="10.0000" y="97.1000" width="128.0000" height="0.2000" fill="black"/>
<line x1="10.0000" y1="97.3000" x2="10.0000" y2="94.3000" stroke="black" stroke-width="0.25"/>
<text x="10.0000" y="94.0000" font-family="monospace" font-size="2" text-anchor="middle">0</text>
<line x1="20.0000" y1="97.3000" x2="20.0000" y2="95.6500" stroke="black" stroke-width="0.25"/>
<line x1="30.0000" y1="97.3000" x2="30.0000" y2="95.6500" stroke="black" stroke-width="0.25"/>
<line x1="40.0000" y1="97.3000" x2="40.0000" y2="95.6500" stroke="black" stroke-width="0.25"/>
<line x1="50.0000" y1="97.3000" x2="50.0000" y2="95.6500" stroke="black" stroke-width="0.25"/>
<line x1="60.0000" y1="97.3000" x2="60.0000" y2="94.3000" stroke="black" stroke-width="0.25"/>
<text x="60.0000" y="94.0000" font-family="monospace" font-size="2" text-anchor="middle">50</text>
<line x1="70.0000" y1="97.3000" x2="70.0000" y2="95.6500" stroke="black" stroke-width="0.25"/>
<line x1="80.0000" y1="97.3000" x2="80.0000" y2="95.6500" stroke="black" stroke-width="0.25"/>
<line x1="90.0000" y1="97.3000" x2="90.0000" y2="95.6500" stroke="black" stroke-width="0.25"/>
<line x1="100.0000" y1="97.3000" x2="100.0000" y2="95.6500" stroke="black" stroke-width="0.25"/>
<line x1="110.0000" y1="97.3000" x2="110.0000" y2="94.3000" stroke="black" stroke-width="0.25"/>
<text x="110.0000" y="94.0000" font-family="monospace" font-size="2" text-anchor="middle">100</text>
<line x1="120.0000" y1="97.3000" x2="120.0000" y2="95.6500" stroke="black" stroke-width="0.25"/>
<line x1="130.0000" y1="97.3000" x2="130.0000" y2="95.6500" stroke="black" stroke-width="0.25"/>
<text x="10.0000" y="114.9000" font-family="monospace" font-size="2.6">RULERCODE v1   ID 0x04D2 (1234)   L=128.0mm   module=6.40mm   CRC-OK</text>
</svg>