<?xml version="1.0" encoding="UTF-8"?>
<svg xmlns="http://www.w3.org/2000/svg" width="215.900mm" height="279.400mm" viewBox="0 0 215.900 279.400">
<rect width="215.900" height="279.400" fill="white"/>
<g fill="none" stroke="#111" stroke-width="0.35">
<rect x="101.510" y="47.700" width="12.880" height="184.000" rx="6.44" fill="#fff"/>
<rect x="52.750" y="133.260" width="110.400" height="12.880" rx="6.44" fill="#fff"/>
</g>
<g stroke="#111" stroke-width="0.3">
<line x1="103.828" y1="129.700" x2="112.072" y2="129.700"/>
<line x1="103.828" y1="149.700" x2="112.072" y2="149.700"/>
<line x1="103.828" y1="119.700" x2="112.072" y2="119.700"/>
<line x1="103.828" y1="159.700" x2="112.072" y2="159.700"/>
<line x1="103.828" y1="109.700" x2="112.072" y2="109.700"/>
<line x1="103.828" y1="169.700" x2="112.072" y2="169.700"/>
<line x1="103.828" y1="99.700" x2="112.072" y2="99.700"/>
<line x1="103.828" y1="179.700" x2="112.072" y2="179.700"/>
<line x1="101.510" y1="89.700" x2="114.390" y2="89.700"/>
<line x1="101.510" y1="189.700" x2="114.390" y2="189.700"/>
<line x1="103.828" y1="79.700" x2="112.072" y2="79.700"/>
<line x1="103.828" y1="199.700" x2="112.072" y2="199.700"/>
<line x1="103.828" y1="69.700" x2="112.072" y2="69.700"/>
<line x1="103.828" y1="209.700" x2="112.072" y2="209.700"/>
<line x1="103.828" y1="59.700" x2="112.072" y2="59.700"/>
<line x1="103.828" y1="219.700" x2="112.072" y2="219.700"/>
<line x1="103.828" y1="49.700" x2="112.072" y2="49.700"/>
<line x1="103.828" y1="229.700" x2="112.072" y2="229.700"/>
<line x1="117.950" y1="143.822" x2="117.950" y2="135.578"/>
<line x1="97.950" y1="143.822" x2="97.950" y2="135.578"/>
<line x1="127.950" y1="143.822" x2="127.950" y2="135.578"/>
<line x1="87.950" y1="143.822" x2="87.950" y2="135.578"/>
<line x1="137.950" y1="143.822" x2="137.950" y2="135.578"/>
<line x1="77.950" y1="143.822" x2="77.950" y2="135.578"/>
<line x1="147.950" y1="143.822" x2="147.950" y2="135.578"/>
<line x1="67.950" y1="143.822" x2="67.950" y2="135.578"/>
<line x1="157.950" y1="146.140" x2="157.950" y2="133.260"/>
<line x1="57.950" y1="146.140" x2="57.950" y2="133.260"/>
</g>
<g style="mix-blend-mode:multiply">
<rect x="102.154" y="108.595" width="11.592" height="4.250" fill="rgb(255,255,255)"/>
<rect x="102.154" y="102.155" width="11.592" height="4.250" fill="rgb(255,255,255)"/>
<rect x="102.154" y="95.715" width="11.592" height="4.250" fill="rgb(255,255,255)"/>
<rect x="102.154" y="89.275" width="11.592" height="4.250" fill="rgb(255,0,255)"/>
<rect x="102.154" y="82.835" width="11.592" height="4.250" fill="rgb(0,255,0)"/>
<rect x="102.154" y="76.395" width="11.592" height="4.250" fill="rgb(255,255,255)"/>
<rect x="102.154" y="166.555" width="11.592" height="4.250" fill="rgb(0,0,0)"/>
<rect x="102.154" y="172.995" width="11.592" height="4.250" fill="rgb(255,255,0)"/>
<rect x="102.154" y="179.435" width="11.592" height="4.250" fill="rgb(0,255,255)"/>
<rect x="102.154" y="185.875" width="11.592" height="4.250" fill="rgb(255,255,255)"/>
<rect x="102.154" y="192.315" width="11.592" height="4.250" fill="rgb(255,255,0)"/>
<rect x="102.154" y="198.755" width="11.592" height="4.250" fill="rgb(255,255,0)"/>
</g>
<circle cx="107.950" cy="139.700" r="18.400" fill="#111" stroke="#111" stroke-width="0.25"/>
<circle cx="107.950" cy="139.700" r="11.960" fill="#fff" stroke="#111" stroke-width="0.25"/>
<circle cx="107.950" cy="139.700" r="6.900" fill="#111" stroke="#111" stroke-width="0.25"/>
<polygon points="107.950,47.700 100.222,64.260 115.678,64.260" fill="#E23B4E"/>
<text x="118.254" y="47.700" font-family="monospace" font-size="10.30" fill="#E23B4E">N</text>
<text x="107.950" y="235.700" font-family="monospace" font-size="2.4" text-anchor="middle" fill="#111">RULERCROSS  id 0x002A  L=92.0mm  span=184.0mm  CRC-OK</text>
</svg>